<svg width="90px" height="90px" viewBox="0 0 90 90" version="1.1" xmlns="http://www.w3.org/2000/svg" xmlns:xlink="http://www.w3.org/1999/xlink">
	<path d="M78.7192381,32.2288889 L70.1808254,37.1590476 C71.1243175,48.5888889 65.5833651,60.0980952 55.0093968,66.2022222 C40.4062222,74.6333333 21.6678095,69.611746 13.2366984,55.0092063 C4.8055873,40.4066667 9.82653968,21.6669841 24.4297143,13.2365079 C37.6874921,5.58190476 54.3547937,9.01746032 63.6214603,20.644127 L56.1935238,24.932381 C49.3541587,17.2961905 37.8824127,15.22 28.6519365,20.5488889 C18.064,26.6619048 14.4366984,40.2003175 20.5490794,50.7869841 C26.6620952,61.3742857 40.199873,65.0022222 50.7878095,58.8892063 C57.1624127,55.2085714 61.0106667,48.8365079 61.7313016,42.0371429 L46.2259048,50.9888889 L46.2208254,50.98 C40.0119365,54.5653968 32.0436825,52.4295238 28.4589206,46.2206349 C24.8735238,40.011746 27.0093968,32.0434921 33.2182857,28.4587302 C38.0354286,25.6777778 43.9097143,26.3412698 47.975746,29.6765079 L37.4347937,35.7622222 C35.2500317,37.0244444 34.5008254,39.8180952 35.7624127,42.004127 C37.024,44.1888889 39.8182857,44.9374603 42.0036825,43.675873 L60.7630476,32.8460317 L60.7630476,32.8453968 L68.1897143,28.5571429 L68.1897143,28.5577778 L76.168127,23.9514286 L76.168127,23.9507937 L76.1693968,23.9501587 C76.1509841,23.9069841 76.1306667,23.8638095 76.112254,23.8206349 C75.9986032,23.5622222 75.8811429,23.3031746 75.7624127,23.0466667 C75.728127,22.9736508 75.6944762,22.9006349 75.6601905,22.8263492 C75.535746,22.5634921 75.408127,22.3012698 75.2779683,22.0396825 C75.2411429,21.9673016 75.2062222,21.8942857 75.1693968,21.8212698 C75.0373333,21.5603175 74.9014603,21.3 74.7630476,21.0415873 C74.7255873,20.9711111 74.6893968,20.9 74.6519365,20.8301587 C74.4760635,20.5063492 74.2970159,20.1831746 74.111619,19.8625397 C63.1452698,0.868253968 38.8570159,-5.63968254 19.8633651,5.32666667 C0.868444444,16.2930159 -5.63949206,40.5812698 5.32685714,59.5755556 C16.2932063,78.5698413 40.5814603,85.0777778 59.576381,74.1114286 C74.6220952,65.4244444 81.8227302,48.3806349 78.7192381,32.2288889" id="Fill-1" fill="#FFFFFF" mask="url(#mask-2)">
	</path>
</svg>
